# xmcd
#
# Track frame offsets:
#	150
#	19447
#	38672
#	59220
#	77589
#	96709
#	115119
#	130453
#	153118
#	170984
#	190799
#	212268
#	234984
#	251391
#	259118
#	280808
#	301834
#	320042
#
# Disc length: 4517 seconds
#
# Revision: 1
# Processed by: cddbd v1.4PL0 Copyright (c) Steve Scherf et al.
# Submitted via: audiograbber 1.81.02
#
DISCID=fd11a312
DTITLE=Jeremiah - Gratest Hits
DYEAR=2003
DGENRE=Ballad
TTITLE0=Basta't Ikaw
TTITLE1=Sana'y Pangarap Mo Rin (R)
TTITLE2=Ikaw Ang Hinala
TTITLE3=I Need You Here To Stay
TTITLE4=Yakap-Yakap (R)
TTITLE5=Hush
TTITLE6=Outcage
TTITLE7=Your Love
TTITLE8=Hanggang Dito Na Lang Ba
TTITLE9=Maaari Bang Sabihin
TTITLE10=Nasaktan Man Ako
TTITLE11=Wala Akong Magagawa
TTITLE12=Ugoy Ng Duyan
TTITLE13=Annie's Song (R)
TTITLE14=Nanghihinayang
TTITLE15=Hindi Ako Katulad Niya
TTITLE16=Di Ko Kaya
TTITLE17=Oh Babe
EXTD=
EXTT0=
EXTT1=
EXTT2=
EXTT3=
EXTT4=
EXTT5=
EXTT6=
EXTT7=
EXTT8=
EXTT9=
EXTT10=
EXTT11=
EXTT12=
EXTT13=
EXTT14=
EXTT15=
EXTT16=
EXTT17=
PLAYORDER=
